<?xml version="1.0" encoding="utf-8"?>
<!-- Generator: Adobe Illustrator 18.1.1, SVG Export Plug-In . SVG Version: 6.00 Build 0)  -->
<svg version="1.1" id="图层_1" xmlns="http://www.w3.org/2000/svg" xmlns:xlink="http://www.w3.org/1999/xlink" x="0px" y="0px"
	 viewBox="0 0 548 273.6" enable-background="new 0 0 548 273.6" xml:space="preserve">
<path d="M424.3,94.6v57.5h-6.1c-2.3-9.1-5-16.6-7.9-22.6c-2.9-6-6.3-10.7-10-14.3c-3.8-3.6-7.9-6.1-12.5-7.6
	c-4.6-1.5-9.7-2.2-15.4-2.2c-4.3,0-8.2,0.6-11.7,1.9c-3.5,1.3-6.5,2.9-9,5c-2.5,2-4.5,4.4-5.9,7c-1.4,2.6-2.1,5.3-2.1,8
	c0,3.4,0.5,6.6,1.5,9.6c1,2.9,3,6,6.2,9.1c3.1,3.1,7.6,6.5,13.5,10c5.8,3.6,13.7,7.7,23.5,12.5c9.1,4.4,16.7,8.8,22.9,13.1
	c6.2,4.3,11.2,8.6,15.1,12.9c3.9,4.3,6.6,8.8,8.3,13.4s2.5,9.4,2.5,14.3c0,7.7-1.6,14.8-4.9,21.1c-3.3,6.3-7.5,11.7-12.8,16.1
	c-5.3,4.4-11.3,7.9-18.1,10.3c-6.8,2.5-13.6,3.7-20.6,3.7c-5.2,0-10.7-0.4-16.6-1.3c-5.9-0.9-12.2-2.3-18.8-4.2
	c-2.1-0.6-3.9-1.1-5.5-1.4c-1.6-0.3-3.1-0.5-4.4-0.5c-2.7,0-4.9,1.6-6.6,4.8h-6.1v-60.3h6.1c1.7,8.6,4.3,16.2,7.7,22.7
	c3.4,6.5,7.5,11.9,12.1,16.2c4.6,4.3,9.7,7.6,15.3,9.8c5.6,2.2,11.3,3.3,17.2,3.3c4.2,0,8-0.7,11.5-2c3.5-1.4,6.5-3.2,9.1-5.4
	c2.6-2.3,4.6-4.9,6-8c1.4-3.1,2.1-6.4,2.1-10c0-4.2-0.6-8-1.8-11.3c-1.2-3.4-3.5-6.7-6.8-9.9c-3.3-3.2-7.9-6.5-13.6-10
	c-5.8-3.5-13.2-7.5-22.3-12.1c-9.1-4.4-16.4-8.5-22-12.4c-5.6-3.8-10-7.6-13.2-11.5c-3.2-3.9-5.3-7.9-6.5-12.2
	c-1.1-4.2-1.7-9.1-1.7-14.5c0-6.9,1.3-13.3,3.8-19.3c2.5-6,6.1-11.1,10.6-15.5c4.5-4.4,10-7.8,16.2-10.3c6.3-2.5,13.1-3.8,20.6-3.8
	c2.3,0,5.3,0.4,9,1.1c3.7,0.7,7.4,1.5,11.2,2.4c3.7,0.9,7.2,1.7,10.2,2.4c3.1,0.7,5.2,1.1,6.3,1.1c2,0,3.5-0.4,4.6-1.3
	c1.1-0.9,2.4-2.8,3.9-5.7H424.3z"/>
<path d="M148.4,25.5c-3-3.8-6.8-7.1-11.4-9.9c-4.6-2.8-9.6-4.9-15-6.5c-5.4-1.6-10.5-2.4-15.3-2.4c-6.9,0-13.5,1-19.8,2.9
	c-6.3,1.9-12.2,4.6-17.6,8C63.8,21,59,25.1,54.8,29.9c-4.2,4.8-7.7,10.1-10.4,15.9c-5.4,11.8-8.1,26.1-8.1,42.8v11.1H3.4v13.3h14.1
	c2,0.2,3.7,0.4,5.4,0.7c3.4,0.6,6.1,1.8,8.2,3.7c2.1,1.8,3.6,4.5,4.5,7.9c0.2,0.9,0.4,1.9,0.6,2.9v95.8c0,12.2-0.8,20.3-2.4,24.3
	c-1.6,4.3-4.4,7.6-8.4,10c-4,2.4-8.5,3.6-13.4,3.6H4.5v6.6h100.8v-6.6H90.1c-7.5,0-13.6-2.7-18.2-8.1c-3.4-4.2-5.2-14.1-5.2-29.9
	v-111h43.5V99.6H66.7V87.4c0-26.1,0.9-42.3,2.6-48.8c1.7-6.4,4.5-11.1,8.5-14.1c3.9-3,8.7-4.5,14.4-4.5c2.3,0,4.5,0.2,6.5,0.7
	c2,0.5,4.1,1.4,6.1,2.7c2,1.3,4.1,3,6.1,5.3c2,2.2,4.2,5,6.5,8.5c2.3,3.4,4.5,6.2,6.4,8.3c1.9,2.1,3.7,3.7,5.3,4.9
	c1.6,1.2,3.1,1.9,4.5,2.3c1.4,0.4,2.9,0.6,4.3,0.6c1.8,0,3.7-0.5,5.5-1.4c1.8-0.9,3.5-2.1,4.9-3.6c1.4-1.5,2.5-3.1,3.4-4.9
	c0.9-1.8,1.3-3.6,1.3-5.4C152.9,33.4,151.4,29.3,148.4,25.5z"/>
<path fill="#1E6A36" d="M529.3,259.2c-1.5-0.9-2.8-1.8-4-2.9c-1.2-1-2.1-2.6-2.9-4.7c-0.7-2.1-1.3-4.8-1.7-8.2
	c-0.4-3.4-0.6-7.8-0.6-13.2V94.6h-8.1l-50.9,20.6l2.6,6.6c4.9-1.8,9.1-2.8,12.5-2.8c2.7,0,4.9,0.4,6.7,1.2c1.8,0.8,3.1,2.7,4.1,5.8
	c0.9,3.1,1.6,7.7,1.9,13.8c0.4,6.1,0.6,14.6,0.6,25.3v65.1c0,10.3-0.9,17.4-2.6,21.2c-0.9,1.8-1.8,3.4-2.7,4.7
	c-0.9,1.3-2.2,2.4-3.9,3.2c-1.7,0.9-3.8,1.5-6.5,1.8c-2.6,0.4-6.1,0.6-10.2,0.6v6.6h82v-6.6C538,261.8,532.5,260.9,529.3,259.2z"/>
<polygon fill="#1E6A36" points="520,5.7 483.3,51.9 485.5,58 522.2,43.1 542.9,5.7 "/>
<path d="M300.2,246.3c-4.9,2.1-9.2,3.1-12.9,3.1c-2.7,0-5.1-0.9-7.1-2.6c-2-1.7-3.5-4.7-4.5-9c-0.9-4.2-1.3-16.2-1.3-35.9V99.6
	h-57.5v6.8c5.5,0.1,10,0.6,13.5,1.4c3.5,0.8,6.3,2.2,8.3,4.1c2,1.9,3.4,4.4,4.1,7.6s1.1,7.1,1.1,11.9V227c-4.7,4.7-9,8.5-12.9,11.6
	c-3.9,3.1-7.6,5.5-11,7.4c-3.4,1.8-6.6,3.1-9.6,3.9c-3,0.7-5.8,1.1-8.4,1.1c-3.7,0-7.2-0.5-10.6-1.4c-3.4-0.9-6.4-2.8-8.9-5.5
	s-4.6-6.7-6.2-11.7c-1.5-5-2.3-11.6-2.3-19.7v-113H115v4.4v2.4v0.9v1.7v3.3h2.2c4.8,0,8.9,0.3,12.3,0.9c3.4,0.6,6.1,1.8,8.2,3.7
	c2.1,1.8,3.6,4.5,4.5,7.9c0.9,3.4,1.4,7.9,1.4,13.5v14.3v3.3v51.8c0,15.9,1.4,28,4.1,36.5c2.8,8.8,7.7,15.9,14.6,21.3
	c6.9,5.3,15.1,8,24.5,8c8.5,0,16.5-2,24.1-6.1c7.5-4.1,18.6-13.9,33.2-29.7v35.8h8.3l50.5-20.8L300.2,246.3z"/>
</svg>
